<?xml version="1.0" standalone="no"?><!DOCTYPE svg PUBLIC "-//W3C//DTD SVG 1.1//EN" "http://www.w3.org/Graphics/SVG/1.1/DTD/svg11.dtd"><svg t="1585816145867" class="icon" viewBox="0 0 1024 1024" version="1.1" xmlns="http://www.w3.org/2000/svg" p-id="855" xmlns:xlink="http://www.w3.org/1999/xlink" width="200" height="200"><defs><style type="text/css"></style></defs><path d="M645.16096 660.15232c-12.0832 11.1616-29.32736 30.28992-51.26144 57.01632l-18.96448 23.08096-25.8048-15.01184c-123.392-71.68-222.9248-177.31584-279.16288-299.76576l-10.52672-22.95808 18.39104-17.3056c25.21088-23.69536 43.6224-42.2912 55.05024-55.52128 2.048-2.37568 4.03456-4.79232 5.95968-7.2704a497.514496 497.514496 0 0 1-17.98144-144.2816c-0.6144-0.36864-1.24928-0.7168-1.90464-1.04448a68.87424 68.87424 0 0 0-26.23488-6.28736l-145.44896-5.07904c-5.79584-0.18432-6.49216 0.47104-6.69696 6.2464-12.94336 371.56864 276.8896 682.41408 648.45824 695.37792 5.48864 0.18432 6.49216-0.75776 6.67648-6.2464l4.95616-141.59872c0.36864-11.10016 0.38912-16.60928-0.12288-22.75328-1.024-12.20608-0.47104-11.40736-2.70336-11.28448-49.68448 1.76128-96.70656-7.86432-149.97504-27.79136-0.90112 0.8192-1.80224 1.6384-2.70336 2.47808z m-85.85216-10.9568c14.92992-17.32608 27.60704-30.8224 38.15424-40.59136 25.51808-23.63392 43.25376-33.85344 66.29376-20.02944 49.152 19.18976 89.9072 28.18048 131.31776 26.68544 48.37376-2.10944 71.63904 30.53568 75.4688 75.55072 0.83968 9.76896 0.8192 17.32608 0.32768 31.1296l-4.93568 141.6192c-1.55648 44.40064-35.2256 75.50976-79.33952 73.97376-410.3168-14.336-730.46016-357.64224-716.12416-768 1.536-44.52352 34.77504-75.50976 79.31904-73.95328l145.42848 5.07904c49.58208 1.72032 97.75104 26.07104 96.03072 74.60864a428.66688 428.66688 0 0 0 18.37056 139.10016c8.47872 27.38176-7.51616 49.37728-64.83968 104.22272 47.24736 91.25888 122.42944 171.52 214.528 230.6048z m273.55136-437.69856L698.368 345.98912c-9.13408 9.13408-23.9616 9.13408-33.09568 0l-16.71168-16.73216c-9.13408-9.13408-9.13408-23.94112 0-33.09568l136.78592-136.78592h-21.1968c-6.20544 0-12.16512-2.4576-16.54784-6.8608l-29.26592-29.26592c-6.06208-6.0416-7.8848-15.1552-4.608-23.08096a21.17632 21.17632 0 0 1 19.5584-13.06624h155.52512c8.99072 0 16.30208 7.2704 16.30208 16.30208v155.52512c0.02048 8.58112-5.14048 16.30208-13.06624 19.57888-7.90528 3.2768-17.01888 1.45408-23.08096-4.608l-29.26592-29.2864a23.461888 23.461888 0 0 1-6.8608-16.54784v-16.60928 0.04096z m0 0" p-id="856" fill="#1296db"></path></svg>